<?xml version="1.0" encoding="utf-8"?>
<!-- Generator: Adobe Illustrator 23.1.0, SVG Export Plug-In . SVG Version: 6.00 Build 0)  -->
<svg version="1.1" id="Layer_1" xmlns="http://www.w3.org/2000/svg" xmlns:xlink="http://www.w3.org/1999/xlink" x="0px" y="0px"
	 viewBox="0 0 500 200" style="enable-background:new 0 0 500 200;" xml:space="preserve">
<style type="text/css">
	.st0{clip-path:url(#SVGID_2_);fill:none;stroke:#CCCCCC;stroke-width:5;stroke-miterlimit:10;}
	.st1{clip-path:url(#SVGID_4_);fill:none;stroke:#CCCCCC;stroke-width:5;stroke-miterlimit:10;}
	.st2{clip-path:url(#SVGID_6_);fill:none;stroke:#CCCCCC;stroke-width:5;stroke-miterlimit:10;}
	.st3{clip-path:url(#SVGID_8_);fill:none;stroke:#CCCCCC;stroke-width:5;stroke-miterlimit:10;}
	.st4{clip-path:url(#SVGID_10_);fill:none;stroke:#CCCCCC;stroke-width:5;stroke-miterlimit:10;}
	.st5{clip-path:url(#SVGID_12_);fill:none;stroke:#CCCCCC;stroke-width:5;stroke-miterlimit:10;}
	
		.st6{clip-path:url(#SVGID_14_);fill:none;stroke:#CCCCCC;stroke-width:5;stroke-linecap:round;stroke-linejoin:round;stroke-miterlimit:10;}
	
		.st7{clip-path:url(#SVGID_16_);fill:none;stroke:#CCCCCC;stroke-width:5;stroke-linecap:round;stroke-linejoin:round;stroke-miterlimit:10;}
	.st8{clip-path:url(#SVGID_18_);fill:#CCCCCC;}
	.st9{clip-path:url(#SVGID_20_);fill:#CCCCCC;}
	.st10{clip-path:url(#SVGID_22_);fill:#CCCCCC;}
	.st11{clip-path:url(#SVGID_24_);fill:#CCCCCC;}
	.st12{clip-path:url(#SVGID_26_);fill:#CCCCCC;}
	.st13{clip-path:url(#SVGID_28_);fill:#CCCCCC;}
	.st14{clip-path:url(#SVGID_30_);fill:#CCCCCC;}
	.st15{clip-path:url(#SVGID_32_);fill:none;stroke:#CCCCCC;stroke-width:3;stroke-miterlimit:10;}
	.st16{clip-path:url(#SVGID_34_);fill:none;stroke:#CCCCCC;stroke-width:3;stroke-miterlimit:10;}
	.st17{clip-path:url(#SVGID_36_);fill:none;stroke:#CCCCCC;stroke-width:3.046;stroke-miterlimit:10;}
	.st18{clip-path:url(#SVGID_38_);fill:none;stroke:#CCCCCC;stroke-width:3;stroke-miterlimit:10;}
</style>
<g>
	<g>
		<defs>
			<rect id="SVGID_1_" width="500" height="200"/>
		</defs>
		<clipPath id="SVGID_2_">
			<use xlink:href="#SVGID_1_"  style="overflow:visible;"/>
		</clipPath>
		<path class="st0" d="M447.7,33.8c14.4,10,24.3,25.7,25.8,43.8"/>
	</g>
	<g>
		<defs>
			<rect id="SVGID_3_" width="500" height="200"/>
		</defs>
		<clipPath id="SVGID_4_">
			<use xlink:href="#SVGID_3_"  style="overflow:visible;"/>
		</clipPath>
		<path class="st1" d="M375.4,34c10.2-7.1,22.7-11.3,36.3-11.3c13.4,0,25.9,4.1,36,11.1"/>
	</g>
	<g>
		<defs>
			<rect id="SVGID_5_" width="500" height="200"/>
		</defs>
		<clipPath id="SVGID_6_">
			<use xlink:href="#SVGID_5_"  style="overflow:visible;"/>
		</clipPath>
		<path class="st2" d="M350,76.6c1.8-17.5,11.5-32.8,25.5-42.6"/>
	</g>
	<g>
		<defs>
			<rect id="SVGID_7_" width="500" height="200"/>
		</defs>
		<clipPath id="SVGID_8_">
			<use xlink:href="#SVGID_7_"  style="overflow:visible;"/>
		</clipPath>
		<path class="st3" d="M473.8,91v54.6c0,1.7-1.4,3.1-3.1,3.1h-19.9"/>
	</g>
	<g>
		<defs>
			<rect id="SVGID_9_" width="500" height="200"/>
		</defs>
		<clipPath id="SVGID_10_">
			<use xlink:href="#SVGID_9_"  style="overflow:visible;"/>
		</clipPath>
		<line class="st4" x1="349.7" y1="107.5" x2="349.7" y2="91"/>
	</g>
	<g>
		<defs>
			<rect id="SVGID_11_" width="500" height="200"/>
		</defs>
		<clipPath id="SVGID_12_">
			<use xlink:href="#SVGID_11_"  style="overflow:visible;"/>
		</clipPath>
		<path class="st5" d="M350,78.4h122.7c4,0,7.4,3.3,7.4,7.4s-3.3,7.4-7.4,7.4H348.4c-4,0-7.4-3.3-7.4-7.4c0-4,3.3-7.4,7.4-7.4H350"
			/>
	</g>
	<g>
		<defs>
			<rect id="SVGID_13_" width="500" height="200"/>
		</defs>
		<clipPath id="SVGID_14_">
			<use xlink:href="#SVGID_13_"  style="overflow:visible;"/>
		</clipPath>
		<polyline class="st6" points="447.8,33.8 460.1,8.8 478,25 455.9,39.6 		"/>
	</g>
	<g>
		<defs>
			<rect id="SVGID_15_" width="500" height="200"/>
		</defs>
		<clipPath id="SVGID_16_">
			<use xlink:href="#SVGID_15_"  style="overflow:visible;"/>
		</clipPath>
		<line class="st7" x1="455.9" y1="18.3" x2="469" y2="30.1"/>
	</g>
	<g>
		<defs>
			<rect id="SVGID_17_" width="500" height="200"/>
		</defs>
		<clipPath id="SVGID_18_">
			<use xlink:href="#SVGID_17_"  style="overflow:visible;"/>
		</clipPath>
		<path class="st8" d="M29.5,136.6c0,1.1,0.5,1.7,1.7,1.7c2.4,0,5-0.1,7.8-0.2c2.8-0.1,5.3-0.4,7.6-0.7c1.1-0.1,2,0.1,2.6,0.8
			s1,1.5,1.1,2.6c0.1,1.1,0,2.1-0.4,2.9c-0.4,0.8-1.1,1.3-2.2,1.5c-1.5,0.2-4.1,0.5-7.6,0.7c-3.5,0.2-8.1,0.3-13.7,0.3
			c-2.3,0-3.9-0.4-4.8-1.3c-0.9-0.9-1.3-2.4-1.3-4.7v-28.8c0-2.3,0.4-3.8,1.3-4.7s2.5-1.3,4.8-1.3h18.2c1.1,0,1.9,0.4,2.5,1.2
			c0.5,0.8,0.8,1.7,0.8,2.8c0,1.1-0.3,2-0.8,2.7c-0.5,0.8-1.3,1.2-2.5,1.2H31.1c-1.1,0-1.7,0.6-1.7,1.7L29.5,136.6L29.5,136.6z
			 M61.7,121.8h5.8v-18.1c0-1.3,0.4-2.2,1.3-2.7c0.9-0.6,1.8-0.9,2.9-0.9s2.1,0.3,2.9,0.9c0.9,0.6,1.3,1.5,1.3,2.7v55.7
			c0,1.3-0.4,2.2-1.3,2.7c-0.9,0.6-1.8,0.9-2.9,0.9s-2.1-0.3-2.9-0.9c-0.9-0.6-1.3-1.5-1.3-2.7v-29.9h-5.8v26.9
			c0,1.3-0.4,2.2-1.3,2.7c-0.9,0.6-1.8,0.9-3,0.9c-1.1,0-2-0.3-2.9-0.9c-0.9-0.6-1.3-1.5-1.3-2.7v-52c0-1.3,0.4-2.2,1.3-2.7
			c0.9-0.6,1.8-0.9,2.9-0.9c1.1,0,2.1,0.3,3,0.9c0.9,0.6,1.3,1.5,1.3,2.7C61.7,104.4,61.7,121.8,61.7,121.8z"/>
	</g>
	<g>
		<defs>
			<rect id="SVGID_19_" width="500" height="200"/>
		</defs>
		<clipPath id="SVGID_20_">
			<use xlink:href="#SVGID_19_"  style="overflow:visible;"/>
		</clipPath>
		<path class="st9" d="M106.9,112.2v3.4c0,2.2,0.4,4.1,1.1,5.7s1.8,3,3.4,4.4c1.6,1.3,3.1,2.5,4.4,3.6c1.3,1.1,2.5,2,3.5,2.7
			c1,0.8,1.5,1.7,1.5,2.7c0.1,1-0.3,2-0.9,2.9c-0.5,0.8-1.3,1.3-2.4,1.7c-1.1,0.4-2.2,0.2-3.2-0.6c-0.8-0.6-1.8-1.4-3.1-2.3
			c-1.3-1-2.6-2.1-4-3.3c-1.7-1.4-2.8-2.5-3.5-3.2s-1.1-1.5-1.3-2.2h-0.1c-0.2,0.8-0.7,1.7-1.4,2.6s-1.9,2-3.6,3.4
			c-1.4,1.2-2.8,2.3-4.1,3.4s-2.7,2.1-4,3c-1.1,0.8-2.1,1-3.2,0.6c-1.1-0.4-1.9-1-2.4-1.7c-0.6-0.9-0.9-1.9-1-2.9
			c0-1.1,0.5-2.1,1.6-2.9c1.5-1.1,3-2.2,4.4-3.4s2.9-2.4,4.5-3.7c1.5-1.3,2.7-2.8,3.4-4.4c0.7-1.6,1.1-3.4,1.1-5.7v-3.7H87.2
			c-1.1,0-1.9-0.4-2.4-1.2c-0.5-0.8-0.8-1.7-0.8-2.7c0-1.1,0.3-2,0.8-2.8s1.3-1.2,2.4-1.2h29.7c1.1,0,1.9,0.4,2.4,1.2
			c0.5,0.8,0.8,1.7,0.8,2.8c0,1.1-0.3,2-0.8,2.7s-1.3,1.2-2.4,1.2L106.9,112.2L106.9,112.2z M99.7,166.4c-2.3,0-3.9-0.4-4.8-1.3
			c-0.9-0.9-1.3-2.4-1.3-4.7v-13.6c0-1.3,0.5-2.3,1.4-2.9c0.9-0.6,2-0.9,3.3-0.9c1.2,0,2.3,0.3,3.2,0.9c0.9,0.6,1.4,1.6,1.4,2.9
			v10.1c0,1.1,0.6,1.6,1.7,1.6h31c1.1,0,1.9,0.4,2.4,1.1c0.5,0.8,0.8,1.7,0.8,2.8c0,1.1-0.3,2-0.8,2.7s-1.4,1.1-2.4,1.1L99.7,166.4
			L99.7,166.4z M128,125.1h-8.4c-1.1,0-1.9-0.4-2.4-1.2c-0.5-0.8-0.8-1.7-0.8-2.7c0-1.1,0.3-2,0.8-2.8s1.3-1.2,2.4-1.2h8.4V104
			c0-1.3,0.5-2.3,1.4-2.9s2-0.9,3.2-0.9c1.1,0,2.2,0.3,3.1,0.9s1.4,1.6,1.4,2.9v41.3c0,1.4-0.5,2.3-1.4,2.9c-0.9,0.6-2,0.9-3.1,0.9
			c-1.2,0-2.3-0.3-3.2-0.9c-0.9-0.6-1.4-1.6-1.4-2.9V125.1z"/>
	</g>
	<g>
		<defs>
			<rect id="SVGID_21_" width="500" height="200"/>
		</defs>
		<clipPath id="SVGID_22_">
			<use xlink:href="#SVGID_21_"  style="overflow:visible;"/>
		</clipPath>
		<path class="st10" d="M170.4,117.5c0,1.4,0.1,2.8,0.3,4c0.2,1.2,0.5,2.3,1,3.5c0.4,1.1,1,2.2,1.7,3.2s1.6,2.1,2.6,3.2
			c1.3,1.4,2.6,2.8,3.9,4.1c1.3,1.3,2.5,2.5,3.6,3.5c0.9,0.8,1.3,1.8,1.1,2.9s-0.6,2.1-1.4,2.8c-0.3,0.3-0.8,0.6-1.2,0.9
			c-0.5,0.2-1,0.4-1.5,0.5c-0.5,0.1-1,0-1.5-0.1c-0.5-0.1-1-0.4-1.4-0.8c-1-0.9-2-1.9-3.1-3s-2.3-2.3-3.4-3.6c-1.9-2-3.2-3.5-4-4.6
			c-0.7-1-1.1-1.9-1.3-2.6h-0.1c-0.1,0.4-0.3,0.9-0.5,1.3c-0.2,0.5-0.5,1-0.9,1.5c-0.4,0.6-0.9,1.2-1.6,1.9
			c-0.6,0.8-1.4,1.6-2.4,2.6c-1.1,1.3-2.3,2.5-3.6,3.7s-2.6,2.5-4,3.8c-0.9,0.8-1.9,1.1-3.1,0.8c-1.1-0.3-2-0.8-2.7-1.6
			c-0.7-0.8-1.1-1.8-1.1-2.9c-0.1-1.1,0.4-2.1,1.2-2.9c3-2.7,5.8-5.5,8.4-8.4c1-1.1,1.9-2.2,2.6-3.2c0.7-1,1.3-2.1,1.7-3.2
			c0.4-1.1,0.8-2.3,1-3.5c0.2-1.2,0.3-2.5,0.3-4v-10.1c0-1.4,0.5-2.4,1.4-3s2-0.9,3.3-0.9s2.3,0.3,3.3,0.9c0.9,0.6,1.4,1.6,1.4,3
			L170.4,117.5L170.4,117.5z M199.7,159.2c0,1.3-0.5,2.3-1.4,2.9c-0.9,0.6-2,0.9-3.3,0.9c-1.2,0-2.3-0.3-3.2-0.9
			c-0.9-0.6-1.4-1.6-1.4-2.9V104c0-1.3,0.5-2.3,1.4-2.9c0.9-0.6,2-0.9,3.2-0.9c1.3,0,2.3,0.3,3.3,0.9c0.9,0.6,1.4,1.6,1.4,2.9V159.2
			z"/>
	</g>
	<g>
		<defs>
			<rect id="SVGID_23_" width="500" height="200"/>
		</defs>
		<clipPath id="SVGID_24_">
			<use xlink:href="#SVGID_23_"  style="overflow:visible;"/>
		</clipPath>
		<path class="st11" d="M243,130.8c0,2.3-0.4,3.8-1.3,4.7c-0.9,0.9-2.5,1.3-4.8,1.3H217c-2.3,0-3.9-0.4-4.8-1.3
			c-0.9-0.9-1.3-2.4-1.3-4.7v-20.6c0-2.3,0.4-3.8,1.3-4.7c0.9-0.9,2.5-1.3,4.8-1.3h19.8c2.3,0,3.9,0.4,4.8,1.3
			c0.9,0.9,1.3,2.4,1.3,4.7V130.8z M225.4,166.4c-2.3,0-3.9-0.4-4.8-1.3c-0.9-0.9-1.3-2.4-1.3-4.7v-13.6c0-1.3,0.5-2.3,1.4-2.9
			c0.9-0.6,2-0.9,3.3-0.9c1.2,0,2.3,0.3,3.2,0.9c0.9,0.6,1.4,1.6,1.4,2.9v10.1c0,1.1,0.6,1.7,1.7,1.7h30.7c1.1,0,1.9,0.4,2.5,1.1
			c0.5,0.8,0.8,1.7,0.8,2.8c0,1.1-0.3,2-0.8,2.7c-0.5,0.8-1.4,1.1-2.5,1.1L225.4,166.4L225.4,166.4z M233.9,113.6
			c0-1.1-0.6-1.7-1.6-1.7h-10.6c-1.1,0-1.7,0.6-1.7,1.7v13.8c0,1.1,0.6,1.7,1.7,1.7h10.6c1.1,0,1.6-0.6,1.6-1.7V113.6z M262.6,145.3
			c0,1.4-0.5,2.3-1.4,2.9c-0.9,0.6-2,0.9-3.2,0.9c-1.2,0-2.3-0.3-3.2-0.9c-0.9-0.6-1.4-1.6-1.4-2.9V104c0-1.3,0.5-2.3,1.4-2.9
			c0.9-0.6,2-0.9,3.2-0.9c1.2,0,2.3,0.3,3.2,0.9s1.4,1.6,1.4,2.9V145.3z"/>
	</g>
	<g>
		<defs>
			<rect id="SVGID_25_" width="500" height="200"/>
		</defs>
		<clipPath id="SVGID_26_">
			<use xlink:href="#SVGID_25_"  style="overflow:visible;"/>
		</clipPath>
		<path class="st12" d="M275.6,116c-1.1,0-1.9-0.4-2.5-1.2c-0.5-0.8-0.8-1.7-0.8-2.7s0.3-2,0.8-2.7s1.3-1.2,2.5-1.2h11v-4.4
			c0-1.3,0.5-2.3,1.4-2.9c0.9-0.6,2-0.9,3.2-0.9s2.3,0.3,3.2,0.9c0.9,0.6,1.4,1.6,1.4,2.9v4.4h10.3c1.1,0,1.9,0.4,2.5,1.2
			c0.5,0.8,0.8,1.7,0.8,2.7s-0.3,2-0.8,2.7c-0.5,0.8-1.4,1.2-2.5,1.2h-10.3v2.5c0,2.2,0.3,4,1,5.4c0.6,1.4,1.8,2.7,3.4,4
			c1.6,1.3,3.1,2.4,4.4,3.3c1.3,0.9,2.4,1.8,3.4,2.5c1,0.7,1.5,1.6,1.5,2.7c0.1,1.1-0.2,2-0.8,2.8c-0.6,0.8-1.4,1.4-2.5,1.8
			s-2.1,0.1-3.2-0.7l-6.8-5c-0.9-0.7-1.6-1.3-2.2-1.8c-0.6-0.5-1-1-1.4-1.4c-0.4-0.4-0.6-0.8-0.8-1.1c-0.2-0.3-0.3-0.7-0.4-1h-0.1
			c-0.2,0.8-0.6,1.6-1.3,2.5c-0.7,0.9-2,2-3.8,3.4c-1.3,1-2.7,2-4.1,3.1c-1.4,1.1-2.7,2-3.9,2.8c-0.5,0.4-1.1,0.6-1.6,0.7
			s-1.1,0.1-1.5-0.1c-0.5-0.1-0.9-0.4-1.3-0.7c-0.4-0.3-0.8-0.7-1-1.1c-0.6-0.9-0.9-1.8-0.9-2.9s0.5-2,1.7-2.8
			c1.4-1.1,2.9-2.1,4.3-3.1c1.4-1,2.9-2.2,4.6-3.5c1.6-1.3,2.8-2.6,3.4-4c0.6-1.4,1-3.2,1-5.4V116L275.6,116L275.6,116z
			 M288.5,166.4c-2.3,0-3.9-0.4-4.8-1.3c-0.9-0.9-1.3-2.4-1.3-4.7v-12.2c0-1.3,0.5-2.3,1.4-2.9c0.9-0.6,2-0.9,3.3-0.9
			c1.2,0,2.3,0.3,3.2,0.9c0.9,0.6,1.4,1.6,1.4,2.9v8.6c0,1.1,0.5,1.6,1.7,1.6h31c1.1,0,1.9,0.4,2.5,1.1c0.5,0.8,0.8,1.7,0.8,2.8
			c0,1.1-0.3,2-0.8,2.7s-1.3,1.1-2.5,1.1L288.5,166.4L288.5,166.4z M316.8,128h-8.3c-1.1,0-1.9-0.4-2.5-1.2
			c-0.5-0.8-0.8-1.7-0.8-2.7c0-1.1,0.3-2,0.8-2.8s1.3-1.2,2.5-1.2h8.3V104c0-1.3,0.5-2.3,1.4-2.9c0.9-0.6,2-0.9,3.2-0.9
			c1.1,0,2.2,0.3,3.1,0.9c0.9,0.6,1.4,1.6,1.4,2.9v41.3c0,1.3-0.5,2.3-1.4,2.9c-0.9,0.6-2,0.9-3.1,0.9c-1.2,0-2.3-0.3-3.2-0.9
			c-0.9-0.6-1.4-1.6-1.4-2.9V128z"/>
	</g>
	<g>
		<defs>
			<rect id="SVGID_27_" width="500" height="200"/>
		</defs>
		<clipPath id="SVGID_28_">
			<use xlink:href="#SVGID_27_"  style="overflow:visible;"/>
		</clipPath>
		<path class="st13" d="M336.5,140.9c-1.1,0-1.9-0.4-2.5-1.1c-0.5-0.8-0.8-1.6-0.8-2.7c0-1.1,0.3-2,0.8-2.7c0.5-0.8,1.3-1.1,2.5-1.1
			H391c1.1,0,1.9,0.4,2.5,1.1c0.5,0.8,0.8,1.7,0.8,2.7c0,1-0.3,1.9-0.8,2.7c-0.5,0.8-1.3,1.1-2.5,1.1h-21.7v8.5
			c0,1.3-0.5,2.1-1.3,2.7c-0.9,0.6-2,0.8-3.3,0.8c-1.3,0-2.3-0.3-3.2-0.8c-0.9-0.6-1.3-1.4-1.3-2.7v-8.5H336.5z M384.4,158.9
			c1.1,0,1.9,0.4,2.5,1.1c0.5,0.8,0.8,1.7,0.8,2.7s-0.3,2-0.8,2.7s-1.3,1.1-2.5,1.1h-37.1c-2.3,0-3.9-0.4-4.8-1.3
			c-0.9-0.9-1.3-2.4-1.3-4.7v-11.2c0-1.3,0.5-2.3,1.4-2.9c0.9-0.6,2-0.9,3.3-0.9c1.2,0,2.3,0.3,3.2,0.9c0.9,0.6,1.4,1.6,1.4,2.9v7.7
			c0,1.1,0.5,1.7,1.7,1.7H384.4z M347.4,127.8c-2.3,0-3.9-0.4-4.8-1.3c-0.9-0.9-1.3-2.4-1.3-4.7v-13.2c0-2.3,0.4-3.8,1.3-4.7
			c0.9-0.9,2.5-1.3,4.8-1.3h32.8c2.3,0,3.9,0.4,4.8,1.3s1.3,2.4,1.3,4.7v13.2c0,2.3-0.5,3.8-1.3,4.7c-0.9,0.9-2.5,1.3-4.8,1.3H347.4
			z M375.5,120.1c1.1,0,1.7-0.6,1.7-1.7v-6.6c0-1.1-0.5-1.7-1.7-1.7H352c-1.1,0-1.7,0.6-1.7,1.7v6.6c0,1.1,0.5,1.7,1.7,1.7H375.5z"
			/>
	</g>
	<g>
		<defs>
			<rect id="SVGID_29_" width="500" height="200"/>
		</defs>
		<clipPath id="SVGID_30_">
			<use xlink:href="#SVGID_29_"  style="overflow:visible;"/>
		</clipPath>
		<path class="st14" d="M407,136.6c0,1.1,0.5,1.7,1.7,1.7c2.4,0,5-0.1,7.8-0.2c2.8-0.1,5.3-0.4,7.6-0.7c1.1-0.1,2,0.1,2.6,0.8
			s1,1.5,1.1,2.6c0.1,1.1,0,2.1-0.4,2.9c-0.4,0.8-1.1,1.3-2.2,1.5c-1.5,0.2-4.1,0.5-7.6,0.7c-3.5,0.2-8.1,0.3-13.7,0.3
			c-2.3,0-3.9-0.4-4.8-1.3c-0.9-0.9-1.3-2.4-1.3-4.7v-28.8c0-2.3,0.4-3.8,1.3-4.7c0.9-0.9,2.5-1.3,4.8-1.3h18.2
			c1.1,0,1.9,0.4,2.5,1.2c0.5,0.8,0.8,1.7,0.8,2.8c0,1.1-0.3,2-0.8,2.7c-0.5,0.8-1.4,1.2-2.5,1.2h-13.5c-1.1,0-1.7,0.6-1.7,1.7
			V136.6z M439.2,121.8h5.8v-18.1c0-1.3,0.4-2.2,1.3-2.7c0.9-0.6,1.9-0.9,3-0.9s2.1,0.3,3,0.9c0.9,0.6,1.3,1.5,1.3,2.7v55.7
			c0,1.3-0.4,2.2-1.3,2.7c-0.9,0.6-1.9,0.9-3,0.9c-1.1,0-2.1-0.3-3-0.9c-0.9-0.6-1.3-1.5-1.3-2.7v-29.9h-5.8v26.9
			c0,1.3-0.4,2.2-1.3,2.7c-0.9,0.6-1.9,0.9-3,0.9c-1.1,0-2-0.3-2.9-0.9c-0.9-0.6-1.3-1.5-1.3-2.7v-52c0-1.3,0.4-2.2,1.3-2.7
			c0.9-0.6,1.8-0.9,2.9-0.9c1.1,0,2.1,0.3,3,0.9c0.9,0.6,1.3,1.5,1.3,2.7V121.8z"/>
	</g>
	<g>
		<defs>
			<rect id="SVGID_31_" width="500" height="200"/>
		</defs>
		<clipPath id="SVGID_32_">
			<use xlink:href="#SVGID_31_"  style="overflow:visible;"/>
		</clipPath>
		<path class="st15" d="M440.6,27.9c-8.5,6.9-21.4,12.2-36.4,14.2c-13.5,1.8-26.1,0.6-35.8-2.9"/>
	</g>
	<g>
		<defs>
			<rect id="SVGID_33_" width="500" height="200"/>
		</defs>
		<clipPath id="SVGID_34_">
			<use xlink:href="#SVGID_33_"  style="overflow:visible;"/>
		</clipPath>
		<path class="st16" d="M375.4,34c-0.5-0.2-0.9-0.5-1.3-0.7"/>
	</g>
	<g>
		<defs>
			<rect id="SVGID_35_" width="500" height="200"/>
		</defs>
		<clipPath id="SVGID_36_">
			<use xlink:href="#SVGID_35_"  style="overflow:visible;"/>
		</clipPath>
		<path class="st17" d="M460.7,46.2c-13,7.2-31.5,11.3-52,10.4c-18.4-0.8-35-5.4-47.1-12.3"/>
	</g>
	<g>
		<defs>
			<rect id="SVGID_37_" width="500" height="200"/>
		</defs>
		<clipPath id="SVGID_38_">
			<use xlink:href="#SVGID_37_"  style="overflow:visible;"/>
		</clipPath>
		<path class="st18" d="M354,61.5c15.1,7.1,33.9,10.8,54,9.7c22.8-1.3,43.1-8.7,57.8-19.5"/>
	</g>
</g>
</svg>
