<?xml version="1.0" encoding="utf-8"?>
<!-- Generator: Adobe Illustrator 23.1.0, SVG Export Plug-In . SVG Version: 6.00 Build 0)  -->
<svg version="1.1" id="Layer_1" xmlns="http://www.w3.org/2000/svg" xmlns:xlink="http://www.w3.org/1999/xlink" x="0px" y="0px"
	 viewBox="0 0 500 200" style="enable-background:new 0 0 500 200;" xml:space="preserve">
<style type="text/css">
	.st0{clip-path:url(#SVGID_2_);fill:none;stroke:#121946;stroke-width:5;stroke-miterlimit:10;}
	
		.st1{clip-path:url(#SVGID_2_);fill:none;stroke:#121946;stroke-width:5;stroke-linecap:round;stroke-linejoin:round;stroke-miterlimit:10;}
	.st2{clip-path:url(#SVGID_2_);fill:#121946;}
	.st3{clip-path:url(#SVGID_2_);fill:none;stroke:#121946;stroke-width:3;stroke-miterlimit:10;}
	.st4{clip-path:url(#SVGID_2_);fill:none;stroke:#121946;stroke-width:3.046;stroke-miterlimit:10;}
</style>
<g>
	<defs>
		<rect id="SVGID_1_" width="500" height="200"/>
	</defs>
	<clipPath id="SVGID_2_">
		<use xlink:href="#SVGID_1_"  style="overflow:visible;"/>
	</clipPath>
	<path class="st0" d="M447.74,33.84c14.42,9.96,24.25,25.73,25.83,43.78"/>
	<path class="st0" d="M375.43,34.02c10.21-7.13,22.74-11.33,36.29-11.33c13.43,0,25.86,4.13,36.02,11.14"/>
	<path class="st0" d="M349.97,76.64c1.84-17.53,11.46-32.83,25.47-42.61"/>
	<path class="st0" d="M473.79,91v54.65c0,1.71-1.39,3.09-3.09,3.09h-19.94"/>
	<line class="st0" x1="349.69" y1="107.46" x2="349.69" y2="90.98"/>
	<path class="st0" d="M349.97,78.44h122.68c4.05,0,7.36,3.31,7.36,7.36c0,4.05-3.31,7.36-7.36,7.36H348.36
		c-4.05,0-7.36-3.31-7.36-7.36c0-4.04,3.31-7.36,7.36-7.36H349.97"/>
	<polyline class="st1" points="447.79,33.76 460.11,8.75 478.04,24.95 455.94,39.61 	"/>
	<line class="st1" x1="455.93" y1="18.27" x2="469.04" y2="30.12"/>
	<path class="st2" d="M29.48,136.62c0,1.1,0.55,1.66,1.66,1.66c2.4,0,4.99-0.07,7.78-0.22c2.78-0.14,5.33-0.38,7.63-0.72
		c1.1-0.14,1.97,0.11,2.59,0.76c0.62,0.65,0.98,1.52,1.08,2.63c0.1,1.1-0.05,2.06-0.43,2.88c-0.39,0.82-1.1,1.32-2.16,1.51
		c-1.54,0.24-4.06,0.47-7.56,0.68c-3.5,0.22-8.06,0.32-13.68,0.32c-2.3,0-3.9-0.43-4.79-1.3c-0.89-0.86-1.33-2.42-1.33-4.68v-28.8
		c0-2.26,0.44-3.82,1.33-4.68c0.89-0.86,2.48-1.3,4.79-1.3H44.6c1.1,0,1.92,0.39,2.45,1.15c0.53,0.77,0.79,1.7,0.79,2.81
		c0,1.06-0.26,1.97-0.79,2.74c-0.53,0.77-1.34,1.15-2.45,1.15H31.13c-1.1,0-1.66,0.55-1.66,1.65V136.62z M61.66,121.79h5.76v-18.07
		c0-1.25,0.43-2.16,1.3-2.74c0.86-0.58,1.85-0.86,2.95-0.86c1.1,0,2.09,0.29,2.95,0.86c0.86,0.58,1.3,1.49,1.3,2.74v55.73
		c0,1.25-0.43,2.16-1.3,2.74c-0.86,0.57-1.85,0.86-2.95,0.86c-1.1,0-2.09-0.29-2.95-0.86c-0.86-0.58-1.3-1.49-1.3-2.74v-29.88h-5.76
		v26.86c0,1.25-0.43,2.16-1.3,2.74c-0.86,0.58-1.85,0.86-2.95,0.86c-1.06,0-2.02-0.29-2.88-0.86c-0.86-0.58-1.3-1.49-1.3-2.74
		v-51.98c0-1.25,0.43-2.16,1.3-2.74c0.86-0.58,1.82-0.86,2.88-0.86c1.1,0,2.09,0.29,2.95,0.86c0.86,0.58,1.3,1.49,1.3,2.74V121.79z"
		/>
	<path class="st2" d="M106.95,112.21v3.45c0,2.21,0.36,4.09,1.08,5.65c0.72,1.56,1.85,3.01,3.38,4.36c1.58,1.35,3.05,2.54,4.39,3.6
		c1.34,1.06,2.52,1.97,3.53,2.74c0.96,0.77,1.46,1.66,1.51,2.66c0.05,1.01-0.26,1.97-0.94,2.88c-0.53,0.77-1.33,1.34-2.41,1.73
		c-1.08,0.38-2.15,0.19-3.2-0.58c-0.82-0.58-1.85-1.35-3.1-2.34c-1.25-0.98-2.57-2.08-3.96-3.28c-1.68-1.39-2.84-2.47-3.49-3.24
		c-0.65-0.77-1.07-1.51-1.26-2.23h-0.07c-0.19,0.82-0.65,1.67-1.37,2.56c-0.72,0.89-1.92,2.03-3.6,3.42
		c-1.39,1.2-2.76,2.33-4.1,3.39c-1.34,1.06-2.69,2.06-4.03,3.02c-1.06,0.77-2.12,0.96-3.2,0.58c-1.08-0.38-1.89-0.96-2.41-1.73
		c-0.63-0.86-0.95-1.85-0.97-2.95c-0.02-1.1,0.52-2.06,1.62-2.88c1.54-1.1,3.01-2.22,4.43-3.35c1.42-1.13,2.92-2.36,4.5-3.71
		c1.53-1.34,2.66-2.8,3.38-4.36c0.72-1.56,1.08-3.44,1.08-5.65v-3.74H87.15c-1.1,0-1.92-0.38-2.45-1.15
		c-0.53-0.77-0.79-1.68-0.79-2.74c0-1.1,0.26-2.04,0.79-2.81c0.53-0.77,1.34-1.15,2.45-1.15h29.66c1.1,0,1.92,0.38,2.45,1.15
		c0.53,0.77,0.79,1.71,0.79,2.81c0,1.06-0.26,1.97-0.79,2.74c-0.53,0.77-1.34,1.15-2.45,1.15H106.95z M99.68,166.36
		c-2.3,0-3.9-0.43-4.79-1.3c-0.89-0.86-1.33-2.42-1.33-4.68v-13.61c0-1.34,0.47-2.33,1.4-2.95c0.94-0.62,2.03-0.94,3.28-0.94
		c1.2,0,2.27,0.31,3.2,0.94c0.94,0.62,1.4,1.61,1.4,2.95v10.08c0,1.1,0.55,1.65,1.66,1.65h31.03c1.1,0,1.92,0.38,2.45,1.15
		c0.53,0.77,0.79,1.7,0.79,2.81c0,1.06-0.26,1.97-0.79,2.74c-0.53,0.77-1.35,1.15-2.45,1.15H99.68z M128.04,125.1h-8.42
		c-1.11,0-1.92-0.38-2.45-1.15c-0.53-0.77-0.79-1.68-0.79-2.74c0-1.1,0.26-2.04,0.79-2.81c0.53-0.77,1.34-1.15,2.45-1.15h8.42
		v-13.25c0-1.34,0.47-2.33,1.4-2.95s2-0.94,3.2-0.94c1.15,0,2.2,0.31,3.13,0.94s1.4,1.61,1.4,2.95v41.33c0,1.35-0.47,2.33-1.4,2.95
		c-0.94,0.62-1.98,0.93-3.13,0.93c-1.2,0-2.27-0.31-3.2-0.93c-0.94-0.62-1.4-1.61-1.4-2.95V125.1z"/>
	<path class="st2" d="M170.45,117.47c0,1.44,0.11,2.76,0.32,3.96c0.22,1.2,0.54,2.35,0.97,3.46c0.43,1.1,1,2.17,1.69,3.2
		c0.69,1.03,1.55,2.1,2.56,3.2c1.3,1.39,2.6,2.76,3.92,4.1c1.32,1.34,2.53,2.5,3.64,3.46c0.91,0.82,1.27,1.79,1.08,2.92
		c-0.19,1.13-0.65,2.08-1.37,2.84c-0.34,0.34-0.75,0.62-1.22,0.86c-0.48,0.24-0.97,0.4-1.48,0.47c-0.5,0.07-1.01,0.04-1.51-0.11
		c-0.5-0.14-0.97-0.41-1.4-0.79c-0.96-0.86-2-1.86-3.13-2.99c-1.13-1.13-2.27-2.32-3.42-3.56c-1.92-2.02-3.24-3.54-3.96-4.57
		c-0.72-1.03-1.15-1.91-1.3-2.63h-0.07c-0.1,0.43-0.25,0.88-0.47,1.33c-0.22,0.46-0.52,0.96-0.9,1.51c-0.39,0.55-0.9,1.2-1.55,1.94
		c-0.65,0.75-1.45,1.62-2.41,2.63c-1.15,1.25-2.34,2.47-3.56,3.67s-2.56,2.47-4,3.82c-0.91,0.82-1.93,1.07-3.06,0.76
		c-1.13-0.31-2.03-0.83-2.7-1.55c-0.72-0.82-1.1-1.78-1.15-2.88c-0.05-1.1,0.36-2.06,1.22-2.88c2.98-2.74,5.76-5.52,8.35-8.35
		c1.01-1.1,1.86-2.17,2.56-3.2c0.69-1.03,1.26-2.1,1.69-3.2c0.43-1.1,0.76-2.26,0.97-3.46c0.22-1.2,0.32-2.52,0.32-3.96v-10.08
		c0-1.39,0.47-2.4,1.4-3.02s2.03-0.94,3.28-0.94c1.25,0,2.34,0.31,3.28,0.94c0.94,0.62,1.4,1.63,1.4,3.02V117.47z M199.68,159.16
		c0,1.34-0.47,2.33-1.4,2.95c-0.94,0.62-2.03,0.94-3.28,0.94c-1.2,0-2.27-0.31-3.2-0.94c-0.94-0.63-1.4-1.61-1.4-2.95v-55.15
		c0-1.34,0.47-2.33,1.4-2.95c0.94-0.62,2-0.94,3.2-0.94c1.25,0,2.34,0.31,3.28,0.94c0.94,0.63,1.4,1.61,1.4,2.95V159.16z"/>
	<path class="st2" d="M242.96,130.79c0,2.26-0.45,3.82-1.33,4.68c-0.89,0.86-2.48,1.3-4.79,1.3h-19.8c-2.3,0-3.9-0.43-4.79-1.3
		c-0.89-0.86-1.33-2.42-1.33-4.68V110.2c0-2.26,0.44-3.81,1.33-4.68c0.89-0.86,2.48-1.29,4.79-1.29h19.8c2.3,0,3.9,0.43,4.79,1.29
		c0.89,0.87,1.33,2.42,1.33,4.68V130.79z M225.39,166.36c-2.3,0-3.9-0.43-4.79-1.29c-0.89-0.87-1.33-2.43-1.33-4.68v-13.61
		c0-1.34,0.47-2.33,1.4-2.95c0.94-0.62,2.03-0.94,3.28-0.94c1.2,0,2.27,0.31,3.2,0.94c0.94,0.62,1.4,1.61,1.4,2.95v10.08
		c0,1.1,0.55,1.66,1.66,1.66h30.74c1.1,0,1.92,0.38,2.45,1.15c0.53,0.77,0.79,1.7,0.79,2.81c0,1.05-0.27,1.97-0.79,2.74
		c-0.53,0.77-1.35,1.15-2.45,1.15H225.39z M233.88,113.58c0-1.1-0.55-1.66-1.65-1.66h-10.58c-1.11,0-1.66,0.55-1.66,1.66v13.82
		c0,1.1,0.55,1.66,1.66,1.66h10.58c1.1,0,1.65-0.55,1.65-1.66V113.58z M262.61,145.33c0,1.35-0.47,2.33-1.4,2.95
		c-0.94,0.62-2.01,0.94-3.2,0.94c-1.2,0-2.27-0.31-3.2-0.94c-0.94-0.62-1.4-1.61-1.4-2.95v-41.33c0-1.34,0.47-2.33,1.4-2.95
		c0.94-0.62,2-0.94,3.2-0.94c1.2,0,2.27,0.31,3.2,0.94s1.4,1.61,1.4,2.95V145.33z"/>
	<path class="st2" d="M275.64,116.03c-1.1,0-1.92-0.38-2.45-1.15c-0.53-0.77-0.79-1.68-0.79-2.74c0-1.06,0.26-1.97,0.79-2.74
		c0.53-0.77,1.34-1.15,2.45-1.15h11.02v-4.39c0-1.34,0.47-2.33,1.4-2.95c0.94-0.62,2-0.94,3.2-0.94c1.2,0,2.27,0.31,3.2,0.94
		c0.94,0.63,1.4,1.61,1.4,2.95v4.39h10.3c1.1,0,1.92,0.39,2.45,1.15c0.53,0.77,0.79,1.68,0.79,2.74c0,1.06-0.27,1.97-0.79,2.74
		c-0.53,0.77-1.35,1.15-2.45,1.15h-10.3v2.52c0,2.21,0.32,4,0.97,5.36c0.65,1.37,1.79,2.7,3.42,4c1.63,1.3,3.08,2.41,4.36,3.35
		c1.27,0.94,2.39,1.76,3.35,2.49c0.96,0.72,1.48,1.62,1.55,2.7c0.07,1.08-0.2,2.03-0.83,2.84c-0.63,0.82-1.44,1.4-2.45,1.76
		c-1.01,0.36-2.06,0.13-3.17-0.68l-6.77-5.04c-0.91-0.67-1.65-1.27-2.23-1.8c-0.58-0.53-1.04-1.01-1.4-1.44
		c-0.36-0.43-0.64-0.82-0.83-1.15c-0.19-0.33-0.34-0.67-0.43-1.01h-0.07c-0.19,0.77-0.64,1.6-1.33,2.49
		c-0.7,0.89-1.96,2.03-3.78,3.42c-1.34,1.01-2.72,2.04-4.14,3.09c-1.42,1.06-2.7,1.99-3.85,2.81c-0.53,0.38-1.07,0.62-1.62,0.72
		c-0.55,0.1-1.07,0.07-1.55-0.07c-0.48-0.14-0.93-0.38-1.33-0.72c-0.41-0.34-0.76-0.7-1.04-1.08c-0.63-0.86-0.94-1.84-0.94-2.92
		s0.55-2.03,1.66-2.84c1.44-1.06,2.87-2.1,4.28-3.13c1.42-1.03,2.94-2.2,4.57-3.49c1.63-1.3,2.77-2.63,3.42-4
		c0.65-1.37,0.97-3.16,0.97-5.36v-2.81H275.64z M288.46,166.36c-2.3,0-3.9-0.43-4.79-1.3c-0.89-0.86-1.33-2.43-1.33-4.68v-12.17
		c0-1.34,0.47-2.33,1.4-2.95c0.94-0.62,2.03-0.93,3.27-0.93c1.2,0,2.27,0.31,3.21,0.93c0.94,0.63,1.4,1.61,1.4,2.95v8.64
		c0,1.1,0.55,1.65,1.66,1.65h31.03c1.1,0,1.92,0.38,2.45,1.15c0.53,0.77,0.79,1.7,0.79,2.81c0,1.06-0.26,1.97-0.79,2.74
		c-0.53,0.77-1.34,1.15-2.45,1.15H288.46z M316.83,127.98h-8.28c-1.1,0-1.92-0.38-2.45-1.15c-0.53-0.77-0.79-1.68-0.79-2.74
		c0-1.1,0.26-2.04,0.79-2.81c0.53-0.77,1.34-1.15,2.45-1.15h8.28v-16.13c0-1.34,0.47-2.33,1.4-2.95c0.94-0.62,2-0.94,3.2-0.94
		c1.15,0,2.2,0.31,3.13,0.94c0.94,0.62,1.4,1.61,1.4,2.95v41.33c0,1.34-0.47,2.33-1.4,2.95c-0.94,0.62-1.98,0.93-3.13,0.93
		c-1.2,0-2.27-0.31-3.2-0.93c-0.94-0.62-1.4-1.61-1.4-2.95V127.98z"/>
	<path class="st2" d="M336.55,140.87c-1.1,0-1.92-0.38-2.45-1.15c-0.53-0.77-0.79-1.65-0.79-2.66c0-1.05,0.26-1.97,0.79-2.73
		c0.53-0.77,1.34-1.15,2.45-1.15h54.43c1.11,0,1.92,0.39,2.45,1.15c0.53,0.77,0.79,1.68,0.79,2.73c0,1.01-0.26,1.9-0.79,2.66
		c-0.53,0.77-1.34,1.15-2.45,1.15h-21.67v8.5c0,1.25-0.45,2.15-1.33,2.7c-0.89,0.55-1.98,0.83-3.28,0.83c-1.25,0-2.32-0.28-3.2-0.83
		c-0.89-0.55-1.33-1.45-1.33-2.7v-8.5H336.55z M384.36,158.87c1.11,0,1.92,0.38,2.45,1.15c0.53,0.77,0.79,1.68,0.79,2.74
		s-0.26,1.97-0.79,2.74c-0.53,0.77-1.34,1.15-2.45,1.15h-37.15c-2.3,0-3.9-0.43-4.79-1.3c-0.89-0.86-1.33-2.42-1.33-4.68v-11.16
		c0-1.34,0.47-2.33,1.4-2.95c0.94-0.62,2.03-0.94,3.28-0.94c1.2,0,2.27,0.31,3.2,0.94c0.94,0.62,1.4,1.61,1.4,2.95v7.7
		c0,1.1,0.55,1.66,1.66,1.66H384.36z M347.35,127.77c-2.3,0-3.9-0.43-4.79-1.29c-0.89-0.87-1.33-2.42-1.33-4.68v-13.18
		c0-2.25,0.44-3.82,1.33-4.68c0.89-0.86,2.48-1.29,4.79-1.29h32.83c2.3,0,3.9,0.43,4.79,1.29c0.89,0.86,1.33,2.43,1.33,4.68v13.18
		c0,2.26-0.45,3.82-1.33,4.68c-0.89,0.86-2.48,1.29-4.79,1.29H347.35z M375.51,120.13c1.1,0,1.66-0.55,1.66-1.66v-6.55
		c0-1.1-0.55-1.66-1.66-1.66h-23.47c-1.11,0-1.66,0.55-1.66,1.66v6.55c0,1.1,0.55,1.66,1.66,1.66H375.51z"/>
	<path class="st2" d="M407.04,136.62c0,1.1,0.55,1.66,1.66,1.66c2.4,0,4.99-0.07,7.78-0.22c2.78-0.14,5.33-0.38,7.63-0.72
		c1.1-0.14,1.97,0.11,2.59,0.76c0.62,0.65,0.98,1.52,1.08,2.63c0.1,1.1-0.05,2.06-0.43,2.88c-0.39,0.82-1.1,1.32-2.16,1.51
		c-1.54,0.24-4.06,0.47-7.56,0.68c-3.5,0.22-8.06,0.32-13.68,0.32c-2.3,0-3.9-0.43-4.79-1.3c-0.89-0.86-1.33-2.42-1.33-4.68v-28.8
		c0-2.26,0.44-3.82,1.33-4.68c0.89-0.86,2.48-1.3,4.79-1.3h18.22c1.1,0,1.92,0.39,2.45,1.15c0.53,0.77,0.79,1.7,0.79,2.81
		c0,1.06-0.27,1.97-0.79,2.74c-0.53,0.77-1.35,1.15-2.45,1.15H408.7c-1.11,0-1.66,0.55-1.66,1.65V136.62z M439.22,121.79h5.76
		v-18.07c0-1.25,0.43-2.16,1.3-2.74c0.86-0.58,1.85-0.86,2.95-0.86c1.1,0,2.09,0.29,2.95,0.86c0.86,0.58,1.3,1.49,1.3,2.74v55.73
		c0,1.25-0.43,2.16-1.3,2.74c-0.86,0.57-1.85,0.86-2.95,0.86c-1.11,0-2.09-0.29-2.95-0.86c-0.86-0.58-1.3-1.49-1.3-2.74v-29.88
		h-5.76v26.86c0,1.25-0.43,2.16-1.3,2.74c-0.86,0.58-1.85,0.86-2.95,0.86c-1.06,0-2.02-0.29-2.88-0.86c-0.86-0.58-1.3-1.49-1.3-2.74
		v-51.98c0-1.25,0.43-2.16,1.3-2.74c0.86-0.58,1.82-0.86,2.88-0.86c1.1,0,2.09,0.29,2.95,0.86c0.86,0.58,1.3,1.49,1.3,2.74V121.79z"
		/>
	<path class="st3" d="M440.56,27.86c-8.49,6.87-21.44,12.22-36.39,14.23c-13.46,1.81-26.08,0.59-35.76-2.86"/>
	<path class="st3" d="M375.44,34.03c-0.45-0.23-0.89-0.47-1.32-0.71"/>
	<path class="st4" d="M460.74,46.23c-12.98,7.19-31.55,11.28-52,10.42c-18.42-0.77-34.99-5.41-47.11-12.35"/>
	<path class="st3" d="M353.97,61.51c15.07,7.14,33.86,10.84,53.99,9.66c22.77-1.34,43.1-8.67,57.83-19.54"/>
</g>
</svg>
