<?xml version="1.0" encoding="utf-8"?>
<!-- Generator: Adobe Illustrator 24.1.2, SVG Export Plug-In . SVG Version: 6.00 Build 0)  -->
<svg version="1.1" id="Space" xmlns="http://www.w3.org/2000/svg" xmlns:xlink="http://www.w3.org/1999/xlink" x="0px" y="0px"
	 viewBox="0 0 1200 1200" style="enable-background:new 0 0 1200 1200;" xml:space="preserve">
<style type="text/css">
	.st0{fill:#273554;}
	.st1{opacity:0.1;}
	.st2{fill:#FFFFFF;}
	.st3{fill:#FFD26E;}
	.st4{fill:#FF886E;}
	.st5{fill:#FFBD66;}
</style>
<g id="Falling_Star">
	<rect id="Background_10_" y="480" class="st0" width="240" height="240"/>
	<polygon id="Shadow_8_" class="st1" points="240,583.8 172.32,517.55 51.85,599.34 42.38,592.62 39.78,608.92 28.05,636.73 
		112.9,720 240,720 	"/>
	<g id="Falling_Star_1_">
		<g id="Clound">
			<path class="st2" d="M174.28,528.67c-5.58,0-10.65,2.16-14.44,5.7c-3.16-1.91-6.87-3.01-10.83-3.01c-1.47,0-2.91,0.15-4.3,0.44
				c-5.88-10.64-17.22-17.85-30.24-17.85c-14.43,0-26.79,8.85-31.95,21.42c-1.77-0.49-3.64-0.75-5.57-0.75
				c-11.59,0-20.99,9.4-20.99,20.99c0,0.76,0.04,1.51,0.12,2.24h25.16h16.59h25.21h5.7h18.96h0.71h6.28h14.57h24.59
				c1.02-2.48,1.58-5.18,1.58-8.03C195.44,538.14,185.97,528.67,174.28,528.67z"/>
			<path class="st2" d="M183.4,579.86c-2.39,0-4.57,0.93-6.19,2.44c-1.36-0.82-2.95-1.29-4.64-1.29c-0.63,0-1.25,0.07-1.84,0.19
				c-2.52-4.56-7.38-7.65-12.96-7.65c-6.19,0-11.48,3.8-13.7,9.18c-0.76-0.21-1.56-0.32-2.39-0.32c-4.97,0-9,4.03-9,9
				c0,0.32,0.02,0.64,0.05,0.96h10.79h7.11h10.81h2.45h8.13h0.3h2.69h6.25h10.54c0.44-1.06,0.68-2.22,0.68-3.44
				C192.48,583.92,188.41,579.86,183.4,579.86z"/>
		</g>
		<g id="Falling_Star_2">
			<path class="st3" d="M35.21,612.08c0,0,48.24-79.51,137.1-94.53l-16.28,17.23l26.12,2l-24.08,11.53l31.88,8.48
				c0,0-106.02,14.83-142.45,68.92L35.21,612.08z"/>
			<polygon class="st4" points="65.57,609.47 49.55,607.14 42.38,592.62 35.21,607.14 19.19,609.47 30.79,620.77 28.05,636.73 
				42.38,629.19 56.71,636.73 53.98,620.77 			"/>
			<g>
				<polygon class="st1" points="49.55,607.14 42.38,592.62 42.38,617 				"/>
				<polygon class="st1" points="53.98,620.77 65.57,609.47 42.38,617 				"/>
				<polygon class="st1" points="28.05,636.73 42.38,629.19 42.38,617 				"/>
				<polygon class="st1" points="42.38,617 56.71,636.73 53.98,620.77 				"/>
				<polygon class="st1" points="19.19,609.47 30.79,620.77 42.38,617 				"/>
			</g>
		</g>
		<g id="Falling_Star_1">
			<path class="st4" d="M87.63,621.95c0,0,57.93-48.23,130-36.33l-17.02,8.92l19.49,8.42l-21.5,2.49l22.2,14.9
				c0,0-86.82-15.87-127.36,15.29L87.63,621.95z"/>
			<polygon class="st5" points="111.59,627.94 99.92,621.94 98.25,608.92 88.93,618.16 76.03,615.72 81.94,627.44 75.64,638.95 
				88.61,636.95 97.61,646.51 99.72,633.55 			"/>
			<g>
				<polygon class="st1" points="99.92,621.94 98.25,608.92 91.83,627.61 				"/>
				<polygon class="st1" points="99.72,633.55 111.59,627.94 91.83,627.61 				"/>
				<polygon class="st1" points="75.64,638.95 88.61,636.95 91.83,627.61 				"/>
				<polygon class="st1" points="91.83,627.61 97.61,646.51 99.72,633.55 				"/>
				<polygon class="st1" points="76.03,615.72 81.94,627.44 91.83,627.61 				"/>
			</g>
		</g>
		<g>
			<path class="st2" d="M46.78,548.74c-2.43,0-4.4-1.97-4.4-4.4c0,2.43-1.97,4.4-4.4,4.4c2.43,0,4.4,1.97,4.4,4.4
				C42.38,550.71,44.35,548.74,46.78,548.74z"/>
			<path class="st2" d="M166.98,661.1c-2.43,0-4.4-1.97-4.4-4.4c0,2.43-1.97,4.4-4.4,4.4c2.43,0,4.4,1.97,4.4,4.4
				C162.58,663.07,164.55,661.1,166.98,661.1z"/>
			<path class="st2" d="M69.97,661.1c-2.43,0-4.4-1.97-4.4-4.4c0,2.43-1.97,4.4-4.4,4.4c2.43,0,4.4,1.97,4.4,4.4
				C65.57,663.07,67.54,661.1,69.97,661.1z"/>
		</g>
	</g>
</g>
</svg>
