<?xml version="1.0" encoding="utf-8"?>
<!-- Generator: Adobe Illustrator 24.1.2, SVG Export Plug-In . SVG Version: 6.00 Build 0)  -->
<svg version="1.1" id="Space" xmlns="http://www.w3.org/2000/svg" xmlns:xlink="http://www.w3.org/1999/xlink" x="0px" y="0px"
	 viewBox="0 0 1200 1200" style="enable-background:new 0 0 1200 1200;" xml:space="preserve">
<style type="text/css">
	.st0{fill:#283655;}
	.st1{opacity:0.1;fill:#010101;}
	.st2{fill:#FFFFFF;}
	.st3{fill:#D2D3D4;}
	.st4{fill:#F15C4D;}
	.st5{fill:#9EDBF0;}
	.st6{fill:#7CD0E0;}
	.st7{fill:#F1607F;}
	.st8{fill:#002C40;}
	.st9{fill:#D8F0FA;}
</style>
<g id="Telescope_2_">
	<rect id="Background_2_" x="480" class="st0" width="240" height="240"/>
	<polygon id="Shadow_2_" class="st1" points="720,147.9 684.72,112.43 682.94,115.23 668.72,110.03 647.63,88.95 541.25,86.37 
		537.46,93.74 589.87,146.14 572.36,194.24 617.91,240 720,240 	"/>
	<g id="Telescope_1_">
		<g id="Star_2_">
			<g>
				<path class="st2" d="M542.51,148.67c-6.04,0-10.94-4.9-10.94-10.94c0,6.04-4.9,10.94-10.94,10.94c6.04,0,10.94,4.9,10.94,10.94
					C531.57,153.57,536.47,148.67,542.51,148.67z"/>
			</g>
			<g>
				<path class="st2" d="M680.37,76.32c-6.04,0-10.94-4.9-10.94-10.94c0,6.04-4.9,10.94-10.94,10.94c6.04,0,10.94,4.9,10.94,10.94
					C669.43,81.22,674.33,76.32,680.37,76.32z"/>
			</g>
			<g>
				<path class="st2" d="M537.46,102.61c-10.03,0-18.15-8.13-18.15-18.15c0,10.02-8.13,18.15-18.15,18.15
					c10.03,0,18.15,8.13,18.15,18.15C519.31,110.74,527.44,102.61,537.46,102.61z"/>
			</g>
			<g>
				<circle class="st2" cx="623.45" cy="37.4" r="10.94"/>
			</g>
		</g>
		<g id="Telescope">
			<g>
				<rect x="597.97" y="105.82" class="st3" width="6.48" height="22.08"/>
				<rect x="597.97" y="127.55" class="st3" width="6.48" height="67.04"/>
				<polygon class="st3" points="572.36,194.24 590.8,127.9 597.04,129.63 579.17,194.24 				"/>
				<polygon class="st3" points="630.3,194.24 611.85,127.9 605.6,129.63 623.48,194.24 				"/>
				<path class="st4" d="M607.79,127.91c0,3.63-2.95,6.58-6.58,6.58c-3.63,0-6.58-2.95-6.58-6.58c0-3.63,2.95-6.58,6.58-6.58
					C604.84,121.33,607.79,124.27,607.79,127.91z"/>
				<rect x="589.91" y="124.67" class="st4" width="22.6" height="6.48"/>
			</g>
			<g>
				
					<rect x="555.9" y="53.43" transform="matrix(0.3411 -0.94 0.94 0.3411 302.0971 595.9364)" class="st5" width="40.51" height="58.08"/>
				
					<rect x="604.13" y="79.08" transform="matrix(0.3411 -0.94 0.94 0.3411 316.7838 650.4813)" class="st6" width="36.58" height="40.36"/>
				
					<rect x="653.14" y="92.84" transform="matrix(0.3411 -0.94 0.94 0.3411 328.8436 695.1997)" class="st7" width="14.4" height="40.36"/>
				<g>
					<path class="st8" d="M550.78,47.89l2.33,0.85c2.14,0.78,3.25,3.16,2.48,5.3l-13.45,37.06c-0.78,2.14-3.16,3.25-5.3,2.48
						l-2.33-0.85L550.78,47.89z"/>
				</g>
				<g>
					<path class="st8" d="M683.37,110.08c1.07,0.39,1.67,1.45,1.34,2.36l-6.05,16.67c-0.33,0.91-1.47,1.33-2.54,0.95l-0.44-0.16
						l7.25-19.97L683.37,110.08z"/>
				</g>
				
					<rect x="579.22" y="39.91" transform="matrix(0.3411 -0.94 0.94 0.3411 319.8314 590.9581)" class="st9" width="4.5" height="54.84"/>
				
					<rect x="625.08" y="68.18" transform="matrix(0.3413 -0.9399 0.9399 0.3413 332.0261 646.5464)" class="st9" width="4.5" height="36.38"/>
				<path class="st2" d="M542.64,70.31L542.64,70.31L542.64,70.31l7.96-21.97c0,0-3.23,0.71-10.59,21.01l0,0c0,0,0,0,0,0.01
					c0,0,0,0,0,0.01l0,0c-7.36,20.31-5.33,22.92-5.33,22.92L542.64,70.31L542.64,70.31L542.64,70.31z"/>
			</g>
		</g>
	</g>
</g>
</svg>
