<svg xmlns="http://www.w3.org/2000/svg" width="600" height="576.498" viewBox="0 0 600 576.498">
  <defs>
    <style>
      .cls-1 {
        fill: #fcc635;
      }
    </style>
  </defs>
  <path id="다각형_1" data-name="다각형 1" class="cls-1" d="M298.291,2.81a2,2,0,0,1,3.418,0L404.569,171.967a2,2,0,0,0,1.235.9l191.059,46.567a2,2,0,0,1,1.055,3.233l-127.5,151.152a2,2,0,0,0-.465,1.443l15.2,197.976a2,2,0,0,1-2.764,2L300.77,499.473a2,2,0,0,0-1.54,0L117.6,575.24a2,2,0,0,1-2.764-2l15.2-197.976a2,2,0,0,0-.465-1.443L2.082,222.671a2,2,0,0,1,1.055-3.233l191.058-46.567a2,2,0,0,0,1.235-.9Z"/>
</svg>
